<?xml version="1.0" standalone="no"?>
<!DOCTYPE svg PUBLIC "-//W3C//DTD SVG 20010904//EN"
 "http://www.w3.org/TR/2001/REC-SVG-20010904/DTD/svg10.dtd">
<svg version="1.0" xmlns="http://www.w3.org/2000/svg"
 width="750.000000pt" height="1334.000000pt" viewBox="0 0 750.000000 1334.000000"
 preserveAspectRatio="xMidYMid meet">
<metadata>
Created by potrace 1.14, written by Peter Selinger 2001-2017
</metadata>
<g transform="translate(0.000000,1334.000000) scale(0.100000,-0.100000)"
fill="#000000" stroke="none">
<path d="M3075 8109 c-159 -23 -316 -159 -391 -337 l-23 -57 -1 188 0 187 -25
0 -25 0 0 -605 0 -605 24 0 25 0 3 368 3 367 27 73 c37 102 83 176 153 246 72
73 152 114 247 129 60 9 69 13 66 31 -4 24 -9 25 -83 15z"/>
<path d="M3687 8100 c-78 -10 -184 -40 -264 -75 -50 -22 -53 -26 -43 -45 6
-12 17 -19 23 -16 219 96 417 119 579 65 175 -57 258 -187 258 -401 0 -91 -2
-100 -17 -93 -106 41 -314 69 -473 62 -182 -7 -290 -44 -386 -131 -137 -123
-145 -353 -17 -481 87 -88 204 -129 363 -129 218 0 392 84 496 238 l34 51 0
-133 0 -132 25 0 25 0 0 428 c0 454 -2 480 -51 576 -80 161 -300 247 -552 216z
m335 -565 c46 -8 115 -24 152 -35 l68 -21 -4 -127 c-3 -115 -6 -132 -31 -180
-81 -155 -252 -256 -456 -269 -191 -12 -349 58 -413 182 -30 57 -36 167 -13
236 33 99 145 183 286 213 86 19 306 20 411 1z"/>
<path d="M2782 6353 l2 -218 6 202 5 202 160 -200 c88 -109 163 -199 167 -199
5 0 7 98 6 218 l-3 217 -2 -202 c-2 -112 -7 -203 -11 -203 -4 1 -77 89 -162
196 -85 108 -158 198 -162 201 -5 2 -7 -94 -6 -214z"/>
<path d="M3617 6563 c-4 -3 -7 -100 -7 -215 l0 -208 158 2 157 2 -147 3 -148
4 0 99 0 99 133 4 132 3 -132 2 -133 2 0 95 0 95 140 0 c87 0 140 4 140 10 0
11 -282 14 -293 3z"/>
<path d="M4022 6354 c1 -121 4 -177 5 -126 l4 92 82 0 82 0 68 -91 c38 -50 71
-88 74 -85 3 3 -25 44 -61 91 -44 55 -63 87 -54 89 7 2 25 7 39 10 67 14 104
92 76 159 -23 55 -62 69 -199 75 l-118 5 2 -219z m253 182 c40 -17 55 -42 55
-91 0 -84 -38 -105 -190 -105 l-110 0 0 105 0 105 105 0 c69 0 118 -5 140 -14z"/>
<path d="M4522 6359 c-56 -117 -100 -214 -98 -217 3 -2 19 23 35 57 l31 61
138 0 138 0 29 -60 c16 -33 32 -60 36 -60 8 0 -184 407 -199 422 -5 5 -54 -87
-110 -203z m172 55 c32 -68 56 -127 54 -130 -3 -2 -60 -3 -126 -2 l-122 3 62
128 c34 70 64 127 67 127 3 -1 32 -57 65 -126z"/>
<path d="M6300 6355 l0 -215 153 2 152 2 -147 3 -148 4 0 99 0 99 133 4 132 3
-132 2 -133 2 0 95 0 95 140 0 c87 0 140 4 140 10 0 6 -55 10 -145 10 l-145 0
0 -215z"/>
</g>
</svg>
